<svg xmlns="http://www.w3.org/2000/svg" viewBox="0 0 64 64">
  <!-- Minimalist white background -->
  <rect width="64" height="64" rx="14" fill="#ffffff"/>
  
  <!-- Professional Queen Piece Silhouette -->
  <g fill="#171717" stroke="#171717" stroke-width="1.5" stroke-linejoin="round">
    <!-- Crown Points -->
    <circle cx="16" cy="22" r="2.2" />
    <circle cx="24" cy="16" r="2.2" />
    <circle cx="32" cy="14" r="2.5" />
    <circle cx="40" cy="16" r="2.2" />
    <circle cx="48" cy="22" r="2.2" />

    <!-- Crown -->
    <path d="M 24 38 
             L 16 22 
             L 22 28 
             L 24 16 
             L 28 26 
             L 32 14 
             L 36 26 
             L 40 16 
             L 42 28 
             L 48 22 
             L 40 38 
             Z" />

    <!-- Body -->
    <path d="M 24 38 C 26 43 26 47 22 51 L 42 51 C 38 47 38 43 40 38 Z" />

    <!-- Base Rings -->
    <rect x="20" y="51" width="24" height="3" rx="1.5" />
    <path d="M 16 58 C 16 55.5 18 54 21 54 L 43 54 C 46 54 48 55.5 48 58 C 48 60.5 46 62 43 62 L 21 62 C 18 62 16 60.5 16 58 Z" />
  </g>
</svg>
