<svg xmlns="http://www.w3.org/2000/svg" viewBox="0 0 64 64">
  <!-- Minimalist white background -->
  <rect width="64" height="64" rx="14" fill="#ffffff"/>
  
  <!-- FIDE Globe Background -->
  <g stroke="#e5e5e5" stroke-width="1.5" fill="none">
    <circle cx="32" cy="32" r="22" />
    <ellipse cx="32" cy="32" rx="11" ry="22" />
    <line x1="32" y1="10" x2="32" y2="54" />
    <ellipse cx="32" cy="32" rx="22" ry="11" />
    <line x1="10" y1="32" x2="54" y2="32" />
  </g>
  
  <!-- Professional FIDE-style Knight Silhouette -->
  <g fill="#171717" stroke="#ffffff" stroke-width="1.5" stroke-linejoin="round">
    <path d="M 46 51 
             C 44 43 44 33 46 25 
             C 47 21 44 19 42 18 
             L 40 12 
             L 36 17 
             C 30 18 24 22 18 27 
             L 16 32 
             C 19 33 22 31 24 30
             C 22 35 20 42 22 51
             Z" />
    <rect x="20" y="53" width="28" height="2" rx="1" />
    <path d="M 18 57 C 18 56 19 55 21 55 L 47 55 C 49 55 50 56 50 57 C 50 58.5 48 60 46 60 L 22 60 C 20 60 18 58.5 18 57 Z" />
  </g>
  
  <!-- Eye -->
  <circle cx="28" cy="22" r="1.2" fill="#ffffff" stroke="none" />
</svg>
