<svg xmlns="http://www.w3.org/2000/svg" viewBox="0 0 100 100">
  <!-- Minimalist white background -->
  <rect width="100" height="100" rx="20" fill="#ffffff"/>
  
  <g fill="#171717" stroke="#171717" stroke-width="2" stroke-linejoin="round">
    <path d="M 72 75 
             C 68 62 68 50 72 38 
             C 74 32 68 28 65 26 
             L 60 18 
             L 54 25 
             C 45 28 35 34 25 42 
             L 20 50 
             C 28 52 35 48 38 44
             C 34 52 32 62 34 75
             Z" />
    <!-- Base Rings -->
    <rect x="30" y="78" width="40" height="5" rx="2.5" />
    <path d="M 25 88 C 25 84 28 82 32 82 L 68 82 C 72 82 75 84 75 88 C 75 92 72 94 68 94 L 32 94 C 28 94 25 92 25 88 Z" />
  </g>
  <!-- Eye -->
  <circle cx="45" cy="35" r="3" fill="#ffffff" stroke="none" />
</svg>
